<?xml version="1.0" encoding="utf-8" standalone="no"?>
<!DOCTYPE svg PUBLIC "-//W3C//DTD SVG 1.1//EN"
  "http://www.w3.org/Graphics/SVG/1.1/DTD/svg11.dtd">
<svg xmlns:xlink="http://www.w3.org/1999/xlink" width="1440pt" height="864pt" viewBox="0 0 1440 864" xmlns="http://www.w3.org/2000/svg" version="1.1">
 <metadata>
  <rdf:RDF xmlns:dc="http://purl.org/dc/elements/1.1/" xmlns:cc="http://creativecommons.org/ns#" xmlns:rdf="http://www.w3.org/1999/02/22-rdf-syntax-ns#">
   <cc:Work>
    <dc:type rdf:resource="http://purl.org/dc/dcmitype/StillImage"/>
    <dc:date>2025-11-19T00:27:09.061130</dc:date>
    <dc:format>image/svg+xml</dc:format>
    <dc:creator>
     <cc:Agent>
      <dc:title>Matplotlib v3.10.7, https://matplotlib.org/</dc:title>
     </cc:Agent>
    </dc:creator>
   </cc:Work>
  </rdf:RDF>
 </metadata>
 <defs>
  <style type="text/css">*{stroke-linejoin: round; stroke-linecap: butt}</style>
 </defs>
 <g id="figure_1">
  <g id="patch_1">
   <path d="M 0 864 
L 1440 864 
L 1440 0 
L 0 0 
z
" style="fill: #ffffff"/>
  </g>
  <g id="axes_1">
   <g id="patch_2">
    <path d="M 68.49 691.248 
L 1427.04 691.248 
L 1427.04 31.92 
L 68.49 31.92 
z
" style="fill: #ffffff"/>
   </g>
   <g id="matplotlib.axis_1">
    <g id="xtick_1">
     <g id="line2d_1">
      <path d="M 105.037263 691.248 
L 105.037263 31.92 
" clip-path="url(#pe845bd3153)" style="fill: none; stroke-dasharray: 3.7,1.6; stroke-dashoffset: 0; stroke: #cccccc; stroke-opacity: 0.5"/>
     </g>
     <g id="text_1">
      <!-- 0 -->
      <g style="fill: #262626" transform="translate(101.978748 708.621594) scale(0.11 -0.11)">
       <defs>
        <path id="ArialMT-30" d="M 266 2259 
Q 266 3072 433 3567 
Q 600 4063 929 4331 
Q 1259 4600 1759 4600 
Q 2128 4600 2406 4451 
Q 2684 4303 2865 4023 
Q 3047 3744 3150 3342 
Q 3253 2941 3253 2259 
Q 3253 1453 3087 958 
Q 2922 463 2592 192 
Q 2263 -78 1759 -78 
Q 1097 -78 719 397 
Q 266 969 266 2259 
z
M 844 2259 
Q 844 1131 1108 757 
Q 1372 384 1759 384 
Q 2147 384 2411 759 
Q 2675 1134 2675 2259 
Q 2675 3391 2411 3762 
Q 2147 4134 1753 4134 
Q 1366 4134 1134 3806 
Q 844 3388 844 2259 
z
" transform="scale(0.015625)"/>
       </defs>
       <use xlink:href="#ArialMT-30"/>
      </g>
     </g>
    </g>
    <g id="xtick_2">
     <g id="line2d_2">
      <path d="M 357.087356 691.248 
L 357.087356 31.92 
" clip-path="url(#pe845bd3153)" style="fill: none; stroke-dasharray: 3.7,1.6; stroke-dashoffset: 0; stroke: #cccccc; stroke-opacity: 0.5"/>
     </g>
     <g id="text_2">
      <!-- 10 -->
      <g style="fill: #262626" transform="translate(350.970325 708.621594) scale(0.11 -0.11)">
       <defs>
        <path id="ArialMT-31" d="M 2384 0 
L 1822 0 
L 1822 3584 
Q 1619 3391 1289 3197 
Q 959 3003 697 2906 
L 697 3450 
Q 1169 3672 1522 3987 
Q 1875 4303 2022 4600 
L 2384 4600 
L 2384 0 
z
" transform="scale(0.015625)"/>
       </defs>
       <use xlink:href="#ArialMT-31"/>
       <use xlink:href="#ArialMT-30" transform="translate(55.615234 0)"/>
      </g>
     </g>
    </g>
    <g id="xtick_3">
     <g id="line2d_3">
      <path d="M 609.137449 691.248 
L 609.137449 31.92 
" clip-path="url(#pe845bd3153)" style="fill: none; stroke-dasharray: 3.7,1.6; stroke-dashoffset: 0; stroke: #cccccc; stroke-opacity: 0.5"/>
     </g>
     <g id="text_3">
      <!-- 20 -->
      <g style="fill: #262626" transform="translate(603.020418 708.621594) scale(0.11 -0.11)">
       <defs>
        <path id="ArialMT-32" d="M 3222 541 
L 3222 0 
L 194 0 
Q 188 203 259 391 
Q 375 700 629 1000 
Q 884 1300 1366 1694 
Q 2113 2306 2375 2664 
Q 2638 3022 2638 3341 
Q 2638 3675 2398 3904 
Q 2159 4134 1775 4134 
Q 1369 4134 1125 3890 
Q 881 3647 878 3216 
L 300 3275 
Q 359 3922 746 4261 
Q 1134 4600 1788 4600 
Q 2447 4600 2831 4234 
Q 3216 3869 3216 3328 
Q 3216 3053 3103 2787 
Q 2991 2522 2730 2228 
Q 2469 1934 1863 1422 
Q 1356 997 1212 845 
Q 1069 694 975 541 
L 3222 541 
z
" transform="scale(0.015625)"/>
       </defs>
       <use xlink:href="#ArialMT-32"/>
       <use xlink:href="#ArialMT-30" transform="translate(55.615234 0)"/>
      </g>
     </g>
    </g>
    <g id="xtick_4">
     <g id="line2d_4">
      <path d="M 861.187542 691.248 
L 861.187542 31.92 
" clip-path="url(#pe845bd3153)" style="fill: none; stroke-dasharray: 3.7,1.6; stroke-dashoffset: 0; stroke: #cccccc; stroke-opacity: 0.5"/>
     </g>
     <g id="text_4">
      <!-- 30 -->
      <g style="fill: #262626" transform="translate(855.07051 708.621594) scale(0.11 -0.11)">
       <defs>
        <path id="ArialMT-33" d="M 269 1209 
L 831 1284 
Q 928 806 1161 595 
Q 1394 384 1728 384 
Q 2125 384 2398 659 
Q 2672 934 2672 1341 
Q 2672 1728 2419 1979 
Q 2166 2231 1775 2231 
Q 1616 2231 1378 2169 
L 1441 2663 
Q 1497 2656 1531 2656 
Q 1891 2656 2178 2843 
Q 2466 3031 2466 3422 
Q 2466 3731 2256 3934 
Q 2047 4138 1716 4138 
Q 1388 4138 1169 3931 
Q 950 3725 888 3313 
L 325 3413 
Q 428 3978 793 4289 
Q 1159 4600 1703 4600 
Q 2078 4600 2393 4439 
Q 2709 4278 2876 4000 
Q 3044 3722 3044 3409 
Q 3044 3113 2884 2869 
Q 2725 2625 2413 2481 
Q 2819 2388 3044 2092 
Q 3269 1797 3269 1353 
Q 3269 753 2831 336 
Q 2394 -81 1725 -81 
Q 1122 -81 723 278 
Q 325 638 269 1209 
z
" transform="scale(0.015625)"/>
       </defs>
       <use xlink:href="#ArialMT-33"/>
       <use xlink:href="#ArialMT-30" transform="translate(55.615234 0)"/>
      </g>
     </g>
    </g>
    <g id="xtick_5">
     <g id="line2d_5">
      <path d="M 1113.237635 691.248 
L 1113.237635 31.92 
" clip-path="url(#pe845bd3153)" style="fill: none; stroke-dasharray: 3.7,1.6; stroke-dashoffset: 0; stroke: #cccccc; stroke-opacity: 0.5"/>
     </g>
     <g id="text_5">
      <!-- 40 -->
      <g style="fill: #262626" transform="translate(1107.120603 708.621594) scale(0.11 -0.11)">
       <defs>
        <path id="ArialMT-34" d="M 2069 0 
L 2069 1097 
L 81 1097 
L 81 1613 
L 2172 4581 
L 2631 4581 
L 2631 1613 
L 3250 1613 
L 3250 1097 
L 2631 1097 
L 2631 0 
L 2069 0 
z
M 2069 1613 
L 2069 3678 
L 634 1613 
L 2069 1613 
z
" transform="scale(0.015625)"/>
       </defs>
       <use xlink:href="#ArialMT-34"/>
       <use xlink:href="#ArialMT-30" transform="translate(55.615234 0)"/>
      </g>
     </g>
    </g>
    <g id="xtick_6">
     <g id="line2d_6">
      <path d="M 1365.287727 691.248 
L 1365.287727 31.92 
" clip-path="url(#pe845bd3153)" style="fill: none; stroke-dasharray: 3.7,1.6; stroke-dashoffset: 0; stroke: #cccccc; stroke-opacity: 0.5"/>
     </g>
     <g id="text_6">
      <!-- 50 -->
      <g style="fill: #262626" transform="translate(1359.170696 708.621594) scale(0.11 -0.11)">
       <defs>
        <path id="ArialMT-35" d="M 266 1200 
L 856 1250 
Q 922 819 1161 601 
Q 1400 384 1738 384 
Q 2144 384 2425 690 
Q 2706 997 2706 1503 
Q 2706 1984 2436 2262 
Q 2166 2541 1728 2541 
Q 1456 2541 1237 2417 
Q 1019 2294 894 2097 
L 366 2166 
L 809 4519 
L 3088 4519 
L 3088 3981 
L 1259 3981 
L 1013 2750 
Q 1425 3038 1878 3038 
Q 2478 3038 2890 2622 
Q 3303 2206 3303 1553 
Q 3303 931 2941 478 
Q 2500 -78 1738 -78 
Q 1113 -78 717 272 
Q 322 622 266 1200 
z
" transform="scale(0.015625)"/>
       </defs>
       <use xlink:href="#ArialMT-35"/>
       <use xlink:href="#ArialMT-30" transform="translate(55.615234 0)"/>
      </g>
     </g>
    </g>
    <g id="text_7">
     <!-- Epoch -->
     <g style="fill: #262626" transform="translate(725.0825 726.260344) scale(0.16 -0.16)">
      <defs>
       <path id="ArialMT-45" d="M 506 0 
L 506 4581 
L 3819 4581 
L 3819 4041 
L 1113 4041 
L 1113 2638 
L 3647 2638 
L 3647 2100 
L 1113 2100 
L 1113 541 
L 3925 541 
L 3925 0 
L 506 0 
z
" transform="scale(0.015625)"/>
       <path id="ArialMT-70" d="M 422 -1272 
L 422 3319 
L 934 3319 
L 934 2888 
Q 1116 3141 1344 3267 
Q 1572 3394 1897 3394 
Q 2322 3394 2647 3175 
Q 2972 2956 3137 2557 
Q 3303 2159 3303 1684 
Q 3303 1175 3120 767 
Q 2938 359 2589 142 
Q 2241 -75 1856 -75 
Q 1575 -75 1351 44 
Q 1128 163 984 344 
L 984 -1272 
L 422 -1272 
z
M 931 1641 
Q 931 1000 1190 694 
Q 1450 388 1819 388 
Q 2194 388 2461 705 
Q 2728 1022 2728 1688 
Q 2728 2322 2467 2637 
Q 2206 2953 1844 2953 
Q 1484 2953 1207 2617 
Q 931 2281 931 1641 
z
" transform="scale(0.015625)"/>
       <path id="ArialMT-6f" d="M 213 1659 
Q 213 2581 725 3025 
Q 1153 3394 1769 3394 
Q 2453 3394 2887 2945 
Q 3322 2497 3322 1706 
Q 3322 1066 3130 698 
Q 2938 331 2570 128 
Q 2203 -75 1769 -75 
Q 1072 -75 642 372 
Q 213 819 213 1659 
z
M 791 1659 
Q 791 1022 1069 705 
Q 1347 388 1769 388 
Q 2188 388 2466 706 
Q 2744 1025 2744 1678 
Q 2744 2294 2464 2611 
Q 2184 2928 1769 2928 
Q 1347 2928 1069 2612 
Q 791 2297 791 1659 
z
" transform="scale(0.015625)"/>
       <path id="ArialMT-63" d="M 2588 1216 
L 3141 1144 
Q 3050 572 2676 248 
Q 2303 -75 1759 -75 
Q 1078 -75 664 370 
Q 250 816 250 1647 
Q 250 2184 428 2587 
Q 606 2991 970 3192 
Q 1334 3394 1763 3394 
Q 2303 3394 2647 3120 
Q 2991 2847 3088 2344 
L 2541 2259 
Q 2463 2594 2264 2762 
Q 2066 2931 1784 2931 
Q 1359 2931 1093 2626 
Q 828 2322 828 1663 
Q 828 994 1084 691 
Q 1341 388 1753 388 
Q 2084 388 2306 591 
Q 2528 794 2588 1216 
z
" transform="scale(0.015625)"/>
       <path id="ArialMT-68" d="M 422 0 
L 422 4581 
L 984 4581 
L 984 2938 
Q 1378 3394 1978 3394 
Q 2347 3394 2619 3248 
Q 2891 3103 3008 2847 
Q 3125 2591 3125 2103 
L 3125 0 
L 2563 0 
L 2563 2103 
Q 2563 2525 2380 2717 
Q 2197 2909 1863 2909 
Q 1613 2909 1392 2779 
Q 1172 2650 1078 2428 
Q 984 2206 984 1816 
L 984 0 
L 422 0 
z
" transform="scale(0.015625)"/>
      </defs>
      <use xlink:href="#ArialMT-45"/>
      <use xlink:href="#ArialMT-70" transform="translate(66.699219 0)"/>
      <use xlink:href="#ArialMT-6f" transform="translate(122.314453 0)"/>
      <use xlink:href="#ArialMT-63" transform="translate(177.929688 0)"/>
      <use xlink:href="#ArialMT-68" transform="translate(227.929688 0)"/>
     </g>
    </g>
   </g>
   <g id="matplotlib.axis_2">
    <g id="ytick_1">
     <g id="line2d_7">
      <path d="M 68.49 674.168162 
L 1427.04 674.168162 
" clip-path="url(#pe845bd3153)" style="fill: none; stroke-dasharray: 3.7,1.6; stroke-dashoffset: 0; stroke: #cccccc; stroke-opacity: 0.5"/>
     </g>
     <g id="text_8">
      <!-- 0.350 -->
      <g style="fill: #262626" transform="translate(31.465937 678.104959) scale(0.11 -0.11)">
       <defs>
        <path id="ArialMT-2e" d="M 581 0 
L 581 641 
L 1222 641 
L 1222 0 
L 581 0 
z
" transform="scale(0.015625)"/>
       </defs>
       <use xlink:href="#ArialMT-30"/>
       <use xlink:href="#ArialMT-2e" transform="translate(55.615234 0)"/>
       <use xlink:href="#ArialMT-33" transform="translate(83.398438 0)"/>
       <use xlink:href="#ArialMT-35" transform="translate(139.013672 0)"/>
       <use xlink:href="#ArialMT-30" transform="translate(194.628906 0)"/>
      </g>
     </g>
    </g>
    <g id="ytick_2">
     <g id="line2d_8">
      <path d="M 68.49 589.186956 
L 1427.04 589.186956 
" clip-path="url(#pe845bd3153)" style="fill: none; stroke-dasharray: 3.7,1.6; stroke-dashoffset: 0; stroke: #cccccc; stroke-opacity: 0.5"/>
     </g>
     <g id="text_9">
      <!-- 0.375 -->
      <g style="fill: #262626" transform="translate(31.465937 593.123753) scale(0.11 -0.11)">
       <defs>
        <path id="ArialMT-37" d="M 303 3981 
L 303 4522 
L 3269 4522 
L 3269 4084 
Q 2831 3619 2401 2847 
Q 1972 2075 1738 1259 
Q 1569 684 1522 0 
L 944 0 
Q 953 541 1156 1306 
Q 1359 2072 1739 2783 
Q 2119 3494 2547 3981 
L 303 3981 
z
" transform="scale(0.015625)"/>
       </defs>
       <use xlink:href="#ArialMT-30"/>
       <use xlink:href="#ArialMT-2e" transform="translate(55.615234 0)"/>
       <use xlink:href="#ArialMT-33" transform="translate(83.398438 0)"/>
       <use xlink:href="#ArialMT-37" transform="translate(139.013672 0)"/>
       <use xlink:href="#ArialMT-35" transform="translate(194.628906 0)"/>
      </g>
     </g>
    </g>
    <g id="ytick_3">
     <g id="line2d_9">
      <path d="M 68.49 504.205751 
L 1427.04 504.205751 
" clip-path="url(#pe845bd3153)" style="fill: none; stroke-dasharray: 3.7,1.6; stroke-dashoffset: 0; stroke: #cccccc; stroke-opacity: 0.5"/>
     </g>
     <g id="text_10">
      <!-- 0.400 -->
      <g style="fill: #262626" transform="translate(31.465937 508.142548) scale(0.11 -0.11)">
       <use xlink:href="#ArialMT-30"/>
       <use xlink:href="#ArialMT-2e" transform="translate(55.615234 0)"/>
       <use xlink:href="#ArialMT-34" transform="translate(83.398438 0)"/>
       <use xlink:href="#ArialMT-30" transform="translate(139.013672 0)"/>
       <use xlink:href="#ArialMT-30" transform="translate(194.628906 0)"/>
      </g>
     </g>
    </g>
    <g id="ytick_4">
     <g id="line2d_10">
      <path d="M 68.49 419.224546 
L 1427.04 419.224546 
" clip-path="url(#pe845bd3153)" style="fill: none; stroke-dasharray: 3.7,1.6; stroke-dashoffset: 0; stroke: #cccccc; stroke-opacity: 0.5"/>
     </g>
     <g id="text_11">
      <!-- 0.425 -->
      <g style="fill: #262626" transform="translate(31.465937 423.161342) scale(0.11 -0.11)">
       <use xlink:href="#ArialMT-30"/>
       <use xlink:href="#ArialMT-2e" transform="translate(55.615234 0)"/>
       <use xlink:href="#ArialMT-34" transform="translate(83.398438 0)"/>
       <use xlink:href="#ArialMT-32" transform="translate(139.013672 0)"/>
       <use xlink:href="#ArialMT-35" transform="translate(194.628906 0)"/>
      </g>
     </g>
    </g>
    <g id="ytick_5">
     <g id="line2d_11">
      <path d="M 68.49 334.24334 
L 1427.04 334.24334 
" clip-path="url(#pe845bd3153)" style="fill: none; stroke-dasharray: 3.7,1.6; stroke-dashoffset: 0; stroke: #cccccc; stroke-opacity: 0.5"/>
     </g>
     <g id="text_12">
      <!-- 0.450 -->
      <g style="fill: #262626" transform="translate(31.465937 338.180137) scale(0.11 -0.11)">
       <use xlink:href="#ArialMT-30"/>
       <use xlink:href="#ArialMT-2e" transform="translate(55.615234 0)"/>
       <use xlink:href="#ArialMT-34" transform="translate(83.398438 0)"/>
       <use xlink:href="#ArialMT-35" transform="translate(139.013672 0)"/>
       <use xlink:href="#ArialMT-30" transform="translate(194.628906 0)"/>
      </g>
     </g>
    </g>
    <g id="ytick_6">
     <g id="line2d_12">
      <path d="M 68.49 249.262135 
L 1427.04 249.262135 
" clip-path="url(#pe845bd3153)" style="fill: none; stroke-dasharray: 3.7,1.6; stroke-dashoffset: 0; stroke: #cccccc; stroke-opacity: 0.5"/>
     </g>
     <g id="text_13">
      <!-- 0.475 -->
      <g style="fill: #262626" transform="translate(31.465937 253.198932) scale(0.11 -0.11)">
       <use xlink:href="#ArialMT-30"/>
       <use xlink:href="#ArialMT-2e" transform="translate(55.615234 0)"/>
       <use xlink:href="#ArialMT-34" transform="translate(83.398438 0)"/>
       <use xlink:href="#ArialMT-37" transform="translate(139.013672 0)"/>
       <use xlink:href="#ArialMT-35" transform="translate(194.628906 0)"/>
      </g>
     </g>
    </g>
    <g id="ytick_7">
     <g id="line2d_13">
      <path d="M 68.49 164.280929 
L 1427.04 164.280929 
" clip-path="url(#pe845bd3153)" style="fill: none; stroke-dasharray: 3.7,1.6; stroke-dashoffset: 0; stroke: #cccccc; stroke-opacity: 0.5"/>
     </g>
     <g id="text_14">
      <!-- 0.500 -->
      <g style="fill: #262626" transform="translate(31.465937 168.217726) scale(0.11 -0.11)">
       <use xlink:href="#ArialMT-30"/>
       <use xlink:href="#ArialMT-2e" transform="translate(55.615234 0)"/>
       <use xlink:href="#ArialMT-35" transform="translate(83.398438 0)"/>
       <use xlink:href="#ArialMT-30" transform="translate(139.013672 0)"/>
       <use xlink:href="#ArialMT-30" transform="translate(194.628906 0)"/>
      </g>
     </g>
    </g>
    <g id="ytick_8">
     <g id="line2d_14">
      <path d="M 68.49 79.299724 
L 1427.04 79.299724 
" clip-path="url(#pe845bd3153)" style="fill: none; stroke-dasharray: 3.7,1.6; stroke-dashoffset: 0; stroke: #cccccc; stroke-opacity: 0.5"/>
     </g>
     <g id="text_15">
      <!-- 0.525 -->
      <g style="fill: #262626" transform="translate(31.465937 83.236521) scale(0.11 -0.11)">
       <use xlink:href="#ArialMT-30"/>
       <use xlink:href="#ArialMT-2e" transform="translate(55.615234 0)"/>
       <use xlink:href="#ArialMT-35" transform="translate(83.398438 0)"/>
       <use xlink:href="#ArialMT-32" transform="translate(139.013672 0)"/>
       <use xlink:href="#ArialMT-35" transform="translate(194.628906 0)"/>
      </g>
     </g>
    </g>
    <g id="text_16">
     <!-- Accuracy -->
     <g style="fill: #262626" transform="translate(24.098437 394.4815) rotate(-90) scale(0.16 -0.16)">
      <defs>
       <path id="ArialMT-41" d="M -9 0 
L 1750 4581 
L 2403 4581 
L 4278 0 
L 3588 0 
L 3053 1388 
L 1138 1388 
L 634 0 
L -9 0 
z
M 1313 1881 
L 2866 1881 
L 2388 3150 
Q 2169 3728 2063 4100 
Q 1975 3659 1816 3225 
L 1313 1881 
z
" transform="scale(0.015625)"/>
       <path id="ArialMT-75" d="M 2597 0 
L 2597 488 
Q 2209 -75 1544 -75 
Q 1250 -75 995 37 
Q 741 150 617 320 
Q 494 491 444 738 
Q 409 903 409 1263 
L 409 3319 
L 972 3319 
L 972 1478 
Q 972 1038 1006 884 
Q 1059 663 1231 536 
Q 1403 409 1656 409 
Q 1909 409 2131 539 
Q 2353 669 2445 892 
Q 2538 1116 2538 1541 
L 2538 3319 
L 3100 3319 
L 3100 0 
L 2597 0 
z
" transform="scale(0.015625)"/>
       <path id="ArialMT-72" d="M 416 0 
L 416 3319 
L 922 3319 
L 922 2816 
Q 1116 3169 1280 3281 
Q 1444 3394 1641 3394 
Q 1925 3394 2219 3213 
L 2025 2691 
Q 1819 2813 1613 2813 
Q 1428 2813 1281 2702 
Q 1134 2591 1072 2394 
Q 978 2094 978 1738 
L 978 0 
L 416 0 
z
" transform="scale(0.015625)"/>
       <path id="ArialMT-61" d="M 2588 409 
Q 2275 144 1986 34 
Q 1697 -75 1366 -75 
Q 819 -75 525 192 
Q 231 459 231 875 
Q 231 1119 342 1320 
Q 453 1522 633 1644 
Q 813 1766 1038 1828 
Q 1203 1872 1538 1913 
Q 2219 1994 2541 2106 
Q 2544 2222 2544 2253 
Q 2544 2597 2384 2738 
Q 2169 2928 1744 2928 
Q 1347 2928 1158 2789 
Q 969 2650 878 2297 
L 328 2372 
Q 403 2725 575 2942 
Q 747 3159 1072 3276 
Q 1397 3394 1825 3394 
Q 2250 3394 2515 3294 
Q 2781 3194 2906 3042 
Q 3031 2891 3081 2659 
Q 3109 2516 3109 2141 
L 3109 1391 
Q 3109 606 3145 398 
Q 3181 191 3288 0 
L 2700 0 
Q 2613 175 2588 409 
z
M 2541 1666 
Q 2234 1541 1622 1453 
Q 1275 1403 1131 1340 
Q 988 1278 909 1158 
Q 831 1038 831 891 
Q 831 666 1001 516 
Q 1172 366 1500 366 
Q 1825 366 2078 508 
Q 2331 650 2450 897 
Q 2541 1088 2541 1459 
L 2541 1666 
z
" transform="scale(0.015625)"/>
       <path id="ArialMT-79" d="M 397 -1278 
L 334 -750 
Q 519 -800 656 -800 
Q 844 -800 956 -737 
Q 1069 -675 1141 -563 
Q 1194 -478 1313 -144 
Q 1328 -97 1363 -6 
L 103 3319 
L 709 3319 
L 1400 1397 
Q 1534 1031 1641 628 
Q 1738 1016 1872 1384 
L 2581 3319 
L 3144 3319 
L 1881 -56 
Q 1678 -603 1566 -809 
Q 1416 -1088 1222 -1217 
Q 1028 -1347 759 -1347 
Q 597 -1347 397 -1278 
z
" transform="scale(0.015625)"/>
      </defs>
      <use xlink:href="#ArialMT-41"/>
      <use xlink:href="#ArialMT-63" transform="translate(66.699219 0)"/>
      <use xlink:href="#ArialMT-63" transform="translate(116.699219 0)"/>
      <use xlink:href="#ArialMT-75" transform="translate(166.699219 0)"/>
      <use xlink:href="#ArialMT-72" transform="translate(222.314453 0)"/>
      <use xlink:href="#ArialMT-61" transform="translate(255.615234 0)"/>
      <use xlink:href="#ArialMT-63" transform="translate(311.230469 0)"/>
      <use xlink:href="#ArialMT-79" transform="translate(361.230469 0)"/>
     </g>
    </g>
   </g>
   <g id="line2d_15">
    <path d="M 130.242273 661.278545 
L 155.447282 546.252106 
L 180.652291 489.682536 
L 205.857301 445.876533 
L 231.06231 412.822035 
L 256.267319 383.550226 
L 281.472328 363.100171 
L 306.677338 345.767592 
L 331.882347 330.247026 
L 357.087356 317.199309 
L 382.292365 287.899779 
L 407.497375 277.453013 
L 432.702384 266.352416 
L 457.907393 254.351062 
L 483.112403 241.954219 
L 508.317412 230.985643 
L 533.522421 220.601578 
L 558.72743 211.463156 
L 583.93244 203.986223 
L 609.137449 197.09436 
L 634.342458 189.619708 
L 659.547468 182.756064 
L 684.752477 176.500564 
L 709.957486 170.180251 
L 735.162495 164.186082 
L 760.367505 157.919791 
L 785.572514 152.233091 
L 810.777523 146.878627 
L 835.982532 141.417656 
L 861.187542 136.940727 
L 886.392551 132.458874 
L 911.59756 128.159056 
L 936.80257 123.006282 
L 962.007579 118.229827 
L 987.212588 114.152344 
L 1012.417597 104.332715 
L 1037.622607 100.887207 
L 1062.827616 97.659898 
L 1088.032625 94.25745 
L 1113.237635 90.921925 
L 1138.442644 87.687405 
L 1163.647653 84.574156 
L 1188.852662 81.192913 
L 1214.057672 77.764169 
L 1239.262681 74.784489 
L 1264.46769 72.129973 
L 1289.672699 69.469061 
L 1314.877709 66.808461 
L 1340.082718 64.163793 
L 1365.287727 61.889455 
" clip-path="url(#pe845bd3153)" style="fill: none; stroke: #1f77b4; stroke-width: 1.5; stroke-linecap: round"/>
    <defs>
     <path id="m87aeeb2578" d="M 0 3 
C 0.795609 3 1.55874 2.683901 2.12132 2.12132 
C 2.683901 1.55874 3 0.795609 3 0 
C 3 -0.795609 2.683901 -1.55874 2.12132 -2.12132 
C 1.55874 -2.683901 0.795609 -3 0 -3 
C -0.795609 -3 -1.55874 -2.683901 -2.12132 -2.12132 
C -2.683901 -1.55874 -3 -0.795609 -3 0 
C -3 0.795609 -2.683901 1.55874 -2.12132 2.12132 
C -1.55874 2.683901 -0.795609 3 0 3 
z
" style="stroke: #1f77b4"/>
    </defs>
    <g clip-path="url(#pe845bd3153)">
     <use xlink:href="#m87aeeb2578" x="130.242273" y="661.278545" style="fill: #1f77b4; stroke: #1f77b4"/>
     <use xlink:href="#m87aeeb2578" x="155.447282" y="546.252106" style="fill: #1f77b4; stroke: #1f77b4"/>
     <use xlink:href="#m87aeeb2578" x="180.652291" y="489.682536" style="fill: #1f77b4; stroke: #1f77b4"/>
     <use xlink:href="#m87aeeb2578" x="205.857301" y="445.876533" style="fill: #1f77b4; stroke: #1f77b4"/>
     <use xlink:href="#m87aeeb2578" x="231.06231" y="412.822035" style="fill: #1f77b4; stroke: #1f77b4"/>
     <use xlink:href="#m87aeeb2578" x="256.267319" y="383.550226" style="fill: #1f77b4; stroke: #1f77b4"/>
     <use xlink:href="#m87aeeb2578" x="281.472328" y="363.100171" style="fill: #1f77b4; stroke: #1f77b4"/>
     <use xlink:href="#m87aeeb2578" x="306.677338" y="345.767592" style="fill: #1f77b4; stroke: #1f77b4"/>
     <use xlink:href="#m87aeeb2578" x="331.882347" y="330.247026" style="fill: #1f77b4; stroke: #1f77b4"/>
     <use xlink:href="#m87aeeb2578" x="357.087356" y="317.199309" style="fill: #1f77b4; stroke: #1f77b4"/>
     <use xlink:href="#m87aeeb2578" x="382.292365" y="287.899779" style="fill: #1f77b4; stroke: #1f77b4"/>
     <use xlink:href="#m87aeeb2578" x="407.497375" y="277.453013" style="fill: #1f77b4; stroke: #1f77b4"/>
     <use xlink:href="#m87aeeb2578" x="432.702384" y="266.352416" style="fill: #1f77b4; stroke: #1f77b4"/>
     <use xlink:href="#m87aeeb2578" x="457.907393" y="254.351062" style="fill: #1f77b4; stroke: #1f77b4"/>
     <use xlink:href="#m87aeeb2578" x="483.112403" y="241.954219" style="fill: #1f77b4; stroke: #1f77b4"/>
     <use xlink:href="#m87aeeb2578" x="508.317412" y="230.985643" style="fill: #1f77b4; stroke: #1f77b4"/>
     <use xlink:href="#m87aeeb2578" x="533.522421" y="220.601578" style="fill: #1f77b4; stroke: #1f77b4"/>
     <use xlink:href="#m87aeeb2578" x="558.72743" y="211.463156" style="fill: #1f77b4; stroke: #1f77b4"/>
     <use xlink:href="#m87aeeb2578" x="583.93244" y="203.986223" style="fill: #1f77b4; stroke: #1f77b4"/>
     <use xlink:href="#m87aeeb2578" x="609.137449" y="197.09436" style="fill: #1f77b4; stroke: #1f77b4"/>
     <use xlink:href="#m87aeeb2578" x="634.342458" y="189.619708" style="fill: #1f77b4; stroke: #1f77b4"/>
     <use xlink:href="#m87aeeb2578" x="659.547468" y="182.756064" style="fill: #1f77b4; stroke: #1f77b4"/>
     <use xlink:href="#m87aeeb2578" x="684.752477" y="176.500564" style="fill: #1f77b4; stroke: #1f77b4"/>
     <use xlink:href="#m87aeeb2578" x="709.957486" y="170.180251" style="fill: #1f77b4; stroke: #1f77b4"/>
     <use xlink:href="#m87aeeb2578" x="735.162495" y="164.186082" style="fill: #1f77b4; stroke: #1f77b4"/>
     <use xlink:href="#m87aeeb2578" x="760.367505" y="157.919791" style="fill: #1f77b4; stroke: #1f77b4"/>
     <use xlink:href="#m87aeeb2578" x="785.572514" y="152.233091" style="fill: #1f77b4; stroke: #1f77b4"/>
     <use xlink:href="#m87aeeb2578" x="810.777523" y="146.878627" style="fill: #1f77b4; stroke: #1f77b4"/>
     <use xlink:href="#m87aeeb2578" x="835.982532" y="141.417656" style="fill: #1f77b4; stroke: #1f77b4"/>
     <use xlink:href="#m87aeeb2578" x="861.187542" y="136.940727" style="fill: #1f77b4; stroke: #1f77b4"/>
     <use xlink:href="#m87aeeb2578" x="886.392551" y="132.458874" style="fill: #1f77b4; stroke: #1f77b4"/>
     <use xlink:href="#m87aeeb2578" x="911.59756" y="128.159056" style="fill: #1f77b4; stroke: #1f77b4"/>
     <use xlink:href="#m87aeeb2578" x="936.80257" y="123.006282" style="fill: #1f77b4; stroke: #1f77b4"/>
     <use xlink:href="#m87aeeb2578" x="962.007579" y="118.229827" style="fill: #1f77b4; stroke: #1f77b4"/>
     <use xlink:href="#m87aeeb2578" x="987.212588" y="114.152344" style="fill: #1f77b4; stroke: #1f77b4"/>
     <use xlink:href="#m87aeeb2578" x="1012.417597" y="104.332715" style="fill: #1f77b4; stroke: #1f77b4"/>
     <use xlink:href="#m87aeeb2578" x="1037.622607" y="100.887207" style="fill: #1f77b4; stroke: #1f77b4"/>
     <use xlink:href="#m87aeeb2578" x="1062.827616" y="97.659898" style="fill: #1f77b4; stroke: #1f77b4"/>
     <use xlink:href="#m87aeeb2578" x="1088.032625" y="94.25745" style="fill: #1f77b4; stroke: #1f77b4"/>
     <use xlink:href="#m87aeeb2578" x="1113.237635" y="90.921925" style="fill: #1f77b4; stroke: #1f77b4"/>
     <use xlink:href="#m87aeeb2578" x="1138.442644" y="87.687405" style="fill: #1f77b4; stroke: #1f77b4"/>
     <use xlink:href="#m87aeeb2578" x="1163.647653" y="84.574156" style="fill: #1f77b4; stroke: #1f77b4"/>
     <use xlink:href="#m87aeeb2578" x="1188.852662" y="81.192913" style="fill: #1f77b4; stroke: #1f77b4"/>
     <use xlink:href="#m87aeeb2578" x="1214.057672" y="77.764169" style="fill: #1f77b4; stroke: #1f77b4"/>
     <use xlink:href="#m87aeeb2578" x="1239.262681" y="74.784489" style="fill: #1f77b4; stroke: #1f77b4"/>
     <use xlink:href="#m87aeeb2578" x="1264.46769" y="72.129973" style="fill: #1f77b4; stroke: #1f77b4"/>
     <use xlink:href="#m87aeeb2578" x="1289.672699" y="69.469061" style="fill: #1f77b4; stroke: #1f77b4"/>
     <use xlink:href="#m87aeeb2578" x="1314.877709" y="66.808461" style="fill: #1f77b4; stroke: #1f77b4"/>
     <use xlink:href="#m87aeeb2578" x="1340.082718" y="64.163793" style="fill: #1f77b4; stroke: #1f77b4"/>
     <use xlink:href="#m87aeeb2578" x="1365.287727" y="61.889455" style="fill: #1f77b4; stroke: #1f77b4"/>
    </g>
   </g>
   <g id="line2d_16">
    <path d="M 130.242273 661.278545 
L 155.447282 603.765326 
L 180.652291 565.737729 
L 205.857301 535.77243 
L 231.06231 511.182351 
L 256.267319 455.636687 
L 281.472328 419.0063 
L 306.677338 390.223311 
L 331.882347 367.09741 
L 357.087356 347.972865 
L 382.292365 328.842775 
L 407.497375 311.713344 
L 432.702384 295.830308 
L 457.907393 280.651116 
L 483.112403 265.602098 
L 508.317412 254.219271 
L 533.522421 242.848984 
L 558.72743 231.871132 
L 583.93244 221.798164 
L 609.137449 212.826192 
L 634.342458 204.553005 
L 659.547468 196.983902 
L 684.752477 189.991384 
L 709.957486 183.230189 
L 735.162495 176.648534 
L 760.367505 170.30855 
L 785.572514 164.203956 
L 810.777523 158.279568 
L 835.982532 152.527049 
L 861.187542 147.077978 
L 886.392551 141.985795 
L 911.59756 137.170988 
L 936.80257 132.396519 
L 962.007579 127.758953 
L 987.212588 123.201276 
L 1012.417597 117.576045 
L 1037.622607 112.121675 
L 1062.827616 107.052398 
L 1088.032625 102.257923 
L 1113.237635 97.611839 
L 1138.442644 94.282777 
L 1163.647653 91.020167 
L 1188.852662 87.72677 
L 1214.057672 84.428114 
L 1239.262681 81.200627 
L 1264.46769 78.08914 
L 1289.672699 75.068121 
L 1314.877709 72.19123 
L 1340.082718 69.471155 
L 1365.287727 66.892148 
" clip-path="url(#pe845bd3153)" style="fill: none; stroke-dasharray: 2,3.3; stroke-dashoffset: 0; stroke: #1f77b4; stroke-width: 2"/>
   </g>
   <g id="line2d_17">
    <path d="M 130.242273 639.128635 
L 155.447282 528.508162 
L 180.652291 465.582519 
L 205.857301 426.00316 
L 231.06231 394.355298 
L 256.267319 371.664784 
L 281.472328 351.649638 
L 306.677338 336.683886 
L 331.882347 320.698944 
L 357.087356 306.049477 
L 382.292365 287.704678 
L 407.497375 278.781435 
L 432.702384 269.778941 
L 457.907393 261.445045 
L 483.112403 251.935181 
L 508.317412 249.160333 
L 533.522421 238.623707 
L 558.72743 232.696565 
L 583.93244 229.497462 
L 609.137449 221.395811 
L 634.342458 216.284829 
L 659.547468 210.122233 
L 684.752477 209.36376 
L 709.957486 203.617088 
L 735.162495 199.447869 
L 760.367505 196.492448 
L 785.572514 192.109235 
L 810.777523 190.522858 
L 835.982532 185.082374 
L 861.187542 184.187239 
L 886.392551 179.300887 
L 911.59756 177.67968 
L 936.80257 175.476528 
L 962.007579 172.70689 
L 987.212588 169.67958 
L 1012.417597 167.312213 
L 1037.622607 165.223717 
L 1062.827616 164.09116 
L 1088.032625 160.013768 
L 1113.237635 157.265587 
L 1138.442644 154.528246 
L 1163.647653 152.517769 
L 1188.852662 149.428458 
L 1214.057672 148.077398 
L 1239.262681 146.510236 
L 1264.46769 143.771793 
L 1289.672699 142.238469 
L 1314.877709 140.258554 
L 1340.082718 142.060826 
L 1365.287727 138.18645 
" clip-path="url(#pe845bd3153)" style="fill: none; stroke-dasharray: 5.55,2.4; stroke-dashoffset: 0; stroke: #aec7e8; stroke-width: 1.5"/>
    <defs>
     <path id="m6b93a2a658" d="M 0 3 
C 0.795609 3 1.55874 2.683901 2.12132 2.12132 
C 2.683901 1.55874 3 0.795609 3 0 
C 3 -0.795609 2.683901 -1.55874 2.12132 -2.12132 
C 1.55874 -2.683901 0.795609 -3 0 -3 
C -0.795609 -3 -1.55874 -2.683901 -2.12132 -2.12132 
C -2.683901 -1.55874 -3 -0.795609 -3 0 
C -3 0.795609 -2.683901 1.55874 -2.12132 2.12132 
C -1.55874 2.683901 -0.795609 3 0 3 
z
" style="stroke: #aec7e8"/>
    </defs>
    <g clip-path="url(#pe845bd3153)">
     <use xlink:href="#m6b93a2a658" x="130.242273" y="639.128635" style="fill: #aec7e8; stroke: #aec7e8"/>
     <use xlink:href="#m6b93a2a658" x="155.447282" y="528.508162" style="fill: #aec7e8; stroke: #aec7e8"/>
     <use xlink:href="#m6b93a2a658" x="180.652291" y="465.582519" style="fill: #aec7e8; stroke: #aec7e8"/>
     <use xlink:href="#m6b93a2a658" x="205.857301" y="426.00316" style="fill: #aec7e8; stroke: #aec7e8"/>
     <use xlink:href="#m6b93a2a658" x="231.06231" y="394.355298" style="fill: #aec7e8; stroke: #aec7e8"/>
     <use xlink:href="#m6b93a2a658" x="256.267319" y="371.664784" style="fill: #aec7e8; stroke: #aec7e8"/>
     <use xlink:href="#m6b93a2a658" x="281.472328" y="351.649638" style="fill: #aec7e8; stroke: #aec7e8"/>
     <use xlink:href="#m6b93a2a658" x="306.677338" y="336.683886" style="fill: #aec7e8; stroke: #aec7e8"/>
     <use xlink:href="#m6b93a2a658" x="331.882347" y="320.698944" style="fill: #aec7e8; stroke: #aec7e8"/>
     <use xlink:href="#m6b93a2a658" x="357.087356" y="306.049477" style="fill: #aec7e8; stroke: #aec7e8"/>
     <use xlink:href="#m6b93a2a658" x="382.292365" y="287.704678" style="fill: #aec7e8; stroke: #aec7e8"/>
     <use xlink:href="#m6b93a2a658" x="407.497375" y="278.781435" style="fill: #aec7e8; stroke: #aec7e8"/>
     <use xlink:href="#m6b93a2a658" x="432.702384" y="269.778941" style="fill: #aec7e8; stroke: #aec7e8"/>
     <use xlink:href="#m6b93a2a658" x="457.907393" y="261.445045" style="fill: #aec7e8; stroke: #aec7e8"/>
     <use xlink:href="#m6b93a2a658" x="483.112403" y="251.935181" style="fill: #aec7e8; stroke: #aec7e8"/>
     <use xlink:href="#m6b93a2a658" x="508.317412" y="249.160333" style="fill: #aec7e8; stroke: #aec7e8"/>
     <use xlink:href="#m6b93a2a658" x="533.522421" y="238.623707" style="fill: #aec7e8; stroke: #aec7e8"/>
     <use xlink:href="#m6b93a2a658" x="558.72743" y="232.696565" style="fill: #aec7e8; stroke: #aec7e8"/>
     <use xlink:href="#m6b93a2a658" x="583.93244" y="229.497462" style="fill: #aec7e8; stroke: #aec7e8"/>
     <use xlink:href="#m6b93a2a658" x="609.137449" y="221.395811" style="fill: #aec7e8; stroke: #aec7e8"/>
     <use xlink:href="#m6b93a2a658" x="634.342458" y="216.284829" style="fill: #aec7e8; stroke: #aec7e8"/>
     <use xlink:href="#m6b93a2a658" x="659.547468" y="210.122233" style="fill: #aec7e8; stroke: #aec7e8"/>
     <use xlink:href="#m6b93a2a658" x="684.752477" y="209.36376" style="fill: #aec7e8; stroke: #aec7e8"/>
     <use xlink:href="#m6b93a2a658" x="709.957486" y="203.617088" style="fill: #aec7e8; stroke: #aec7e8"/>
     <use xlink:href="#m6b93a2a658" x="735.162495" y="199.447869" style="fill: #aec7e8; stroke: #aec7e8"/>
     <use xlink:href="#m6b93a2a658" x="760.367505" y="196.492448" style="fill: #aec7e8; stroke: #aec7e8"/>
     <use xlink:href="#m6b93a2a658" x="785.572514" y="192.109235" style="fill: #aec7e8; stroke: #aec7e8"/>
     <use xlink:href="#m6b93a2a658" x="810.777523" y="190.522858" style="fill: #aec7e8; stroke: #aec7e8"/>
     <use xlink:href="#m6b93a2a658" x="835.982532" y="185.082374" style="fill: #aec7e8; stroke: #aec7e8"/>
     <use xlink:href="#m6b93a2a658" x="861.187542" y="184.187239" style="fill: #aec7e8; stroke: #aec7e8"/>
     <use xlink:href="#m6b93a2a658" x="886.392551" y="179.300887" style="fill: #aec7e8; stroke: #aec7e8"/>
     <use xlink:href="#m6b93a2a658" x="911.59756" y="177.67968" style="fill: #aec7e8; stroke: #aec7e8"/>
     <use xlink:href="#m6b93a2a658" x="936.80257" y="175.476528" style="fill: #aec7e8; stroke: #aec7e8"/>
     <use xlink:href="#m6b93a2a658" x="962.007579" y="172.70689" style="fill: #aec7e8; stroke: #aec7e8"/>
     <use xlink:href="#m6b93a2a658" x="987.212588" y="169.67958" style="fill: #aec7e8; stroke: #aec7e8"/>
     <use xlink:href="#m6b93a2a658" x="1012.417597" y="167.312213" style="fill: #aec7e8; stroke: #aec7e8"/>
     <use xlink:href="#m6b93a2a658" x="1037.622607" y="165.223717" style="fill: #aec7e8; stroke: #aec7e8"/>
     <use xlink:href="#m6b93a2a658" x="1062.827616" y="164.09116" style="fill: #aec7e8; stroke: #aec7e8"/>
     <use xlink:href="#m6b93a2a658" x="1088.032625" y="160.013768" style="fill: #aec7e8; stroke: #aec7e8"/>
     <use xlink:href="#m6b93a2a658" x="1113.237635" y="157.265587" style="fill: #aec7e8; stroke: #aec7e8"/>
     <use xlink:href="#m6b93a2a658" x="1138.442644" y="154.528246" style="fill: #aec7e8; stroke: #aec7e8"/>
     <use xlink:href="#m6b93a2a658" x="1163.647653" y="152.517769" style="fill: #aec7e8; stroke: #aec7e8"/>
     <use xlink:href="#m6b93a2a658" x="1188.852662" y="149.428458" style="fill: #aec7e8; stroke: #aec7e8"/>
     <use xlink:href="#m6b93a2a658" x="1214.057672" y="148.077398" style="fill: #aec7e8; stroke: #aec7e8"/>
     <use xlink:href="#m6b93a2a658" x="1239.262681" y="146.510236" style="fill: #aec7e8; stroke: #aec7e8"/>
     <use xlink:href="#m6b93a2a658" x="1264.46769" y="143.771793" style="fill: #aec7e8; stroke: #aec7e8"/>
     <use xlink:href="#m6b93a2a658" x="1289.672699" y="142.238469" style="fill: #aec7e8; stroke: #aec7e8"/>
     <use xlink:href="#m6b93a2a658" x="1314.877709" y="140.258554" style="fill: #aec7e8; stroke: #aec7e8"/>
     <use xlink:href="#m6b93a2a658" x="1340.082718" y="142.060826" style="fill: #aec7e8; stroke: #aec7e8"/>
     <use xlink:href="#m6b93a2a658" x="1365.287727" y="138.18645" style="fill: #aec7e8; stroke: #aec7e8"/>
    </g>
   </g>
   <g id="line2d_18">
    <path d="M 130.242273 180.291881 
L 155.447282 272.099701 
L 180.652291 351.854513 
L 205.857301 424.222386 
L 231.06231 490.715555 
L 256.267319 437.222785 
L 281.472328 401.85108 
L 306.677338 376.071353 
L 331.882347 355.01051 
L 357.087356 337.349346 
L 382.292365 320.557325 
L 407.497375 305.983684 
L 432.702384 292.602695 
L 457.907393 280.751915 
L 483.112403 269.929056 
L 508.317412 262.220187 
L 533.522421 254.188641 
L 558.72743 246.772166 
L 583.93244 240.38265 
L 609.137449 234.274776 
L 634.342458 227.699675 
L 659.547468 221.99938 
L 684.752477 217.332819 
L 709.957486 212.156744 
L 735.162495 207.767156 
L 760.367505 203.80868 
L 785.572514 200.20608 
L 810.777523 196.4379 
L 835.982532 192.730957 
L 861.187542 189.678831 
L 886.392551 186.240518 
L 911.59756 183.354607 
L 936.80257 180.345342 
L 962.007579 177.870245 
L 987.212588 174.968713 
L 1012.417597 172.570978 
L 1037.622607 170.079786 
L 1062.827616 167.802712 
L 1088.032625 165.264088 
L 1113.237635 162.781289 
L 1138.442644 160.224496 
L 1163.647653 157.683306 
L 1188.852662 154.750765 
L 1214.057672 152.363491 
L 1239.262681 150.212421 
L 1264.46769 148.061131 
L 1289.672699 146.005271 
L 1314.877709 144.17129 
L 1340.082718 142.967975 
L 1365.287727 141.303218 
" clip-path="url(#pe845bd3153)" style="fill: none; stroke-dasharray: 2,3.3; stroke-dashoffset: 0; stroke: #aec7e8; stroke-width: 2"/>
   </g>
   <g id="patch_3">
    <path d="M 68.49 691.248 
L 68.49 31.92 
" style="fill: none; stroke: #cccccc; stroke-width: 1.25; stroke-linejoin: miter; stroke-linecap: square"/>
   </g>
   <g id="patch_4">
    <path d="M 1427.04 691.248 
L 1427.04 31.92 
" style="fill: none; stroke: #cccccc; stroke-width: 1.25; stroke-linejoin: miter; stroke-linecap: square"/>
   </g>
   <g id="patch_5">
    <path d="M 68.49 691.248 
L 1427.04 691.248 
" style="fill: none; stroke: #cccccc; stroke-width: 1.25; stroke-linejoin: miter; stroke-linecap: square"/>
   </g>
   <g id="patch_6">
    <path d="M 68.49 31.92 
L 1427.04 31.92 
" style="fill: none; stroke: #cccccc; stroke-width: 1.25; stroke-linejoin: miter; stroke-linecap: square"/>
   </g>
   <g id="text_17">
    <!-- txt-generation - wikitext (Rolling Mean) -->
    <g style="fill: #262626" transform="translate(582.271875 25.92) scale(0.18 -0.18)">
     <defs>
      <path id="Arial-BoldMT-74" d="M 1981 3319 
L 1981 2619 
L 1381 2619 
L 1381 1281 
Q 1381 875 1398 808 
Q 1416 741 1477 697 
Q 1538 653 1625 653 
Q 1747 653 1978 738 
L 2053 56 
Q 1747 -75 1359 -75 
Q 1122 -75 931 4 
Q 741 84 652 211 
Q 563 338 528 553 
Q 500 706 500 1172 
L 500 2619 
L 97 2619 
L 97 3319 
L 500 3319 
L 500 3978 
L 1381 4491 
L 1381 3319 
L 1981 3319 
z
" transform="scale(0.015625)"/>
      <path id="Arial-BoldMT-78" d="M 38 0 
L 1234 1709 
L 88 3319 
L 1159 3319 
L 1747 2406 
L 2366 3319 
L 3397 3319 
L 2272 1747 
L 3500 0 
L 2422 0 
L 1747 1028 
L 1066 0 
L 38 0 
z
" transform="scale(0.015625)"/>
      <path id="Arial-BoldMT-2d" d="M 359 1222 
L 359 2100 
L 2084 2100 
L 2084 1222 
L 359 1222 
z
" transform="scale(0.015625)"/>
      <path id="Arial-BoldMT-67" d="M 378 -219 
L 1381 -341 
Q 1406 -516 1497 -581 
Q 1622 -675 1891 -675 
Q 2234 -675 2406 -572 
Q 2522 -503 2581 -350 
Q 2622 -241 2622 53 
L 2622 538 
Q 2228 0 1628 0 
Q 959 0 569 566 
Q 263 1013 263 1678 
Q 263 2513 664 2953 
Q 1066 3394 1663 3394 
Q 2278 3394 2678 2853 
L 2678 3319 
L 3500 3319 
L 3500 341 
Q 3500 -247 3403 -537 
Q 3306 -828 3131 -993 
Q 2956 -1159 2664 -1253 
Q 2372 -1347 1925 -1347 
Q 1081 -1347 728 -1058 
Q 375 -769 375 -325 
Q 375 -281 378 -219 
z
M 1163 1728 
Q 1163 1200 1367 954 
Q 1572 709 1872 709 
Q 2194 709 2416 961 
Q 2638 1213 2638 1706 
Q 2638 2222 2425 2472 
Q 2213 2722 1888 2722 
Q 1572 2722 1367 2476 
Q 1163 2231 1163 1728 
z
" transform="scale(0.015625)"/>
      <path id="Arial-BoldMT-65" d="M 2381 1056 
L 3256 909 
Q 3088 428 2723 176 
Q 2359 -75 1813 -75 
Q 947 -75 531 491 
Q 203 944 203 1634 
Q 203 2459 634 2926 
Q 1066 3394 1725 3394 
Q 2466 3394 2894 2905 
Q 3322 2416 3303 1406 
L 1103 1406 
Q 1113 1016 1316 798 
Q 1519 581 1822 581 
Q 2028 581 2168 693 
Q 2309 806 2381 1056 
z
M 2431 1944 
Q 2422 2325 2234 2523 
Q 2047 2722 1778 2722 
Q 1491 2722 1303 2513 
Q 1116 2303 1119 1944 
L 2431 1944 
z
" transform="scale(0.015625)"/>
      <path id="Arial-BoldMT-6e" d="M 3478 0 
L 2600 0 
L 2600 1694 
Q 2600 2231 2544 2389 
Q 2488 2547 2361 2634 
Q 2234 2722 2056 2722 
Q 1828 2722 1647 2597 
Q 1466 2472 1398 2265 
Q 1331 2059 1331 1503 
L 1331 0 
L 453 0 
L 453 3319 
L 1269 3319 
L 1269 2831 
Q 1703 3394 2363 3394 
Q 2653 3394 2893 3289 
Q 3134 3184 3257 3021 
Q 3381 2859 3429 2653 
Q 3478 2447 3478 2063 
L 3478 0 
z
" transform="scale(0.015625)"/>
      <path id="Arial-BoldMT-72" d="M 1300 0 
L 422 0 
L 422 3319 
L 1238 3319 
L 1238 2847 
Q 1447 3181 1614 3287 
Q 1781 3394 1994 3394 
Q 2294 3394 2572 3228 
L 2300 2463 
Q 2078 2606 1888 2606 
Q 1703 2606 1575 2504 
Q 1447 2403 1373 2137 
Q 1300 1872 1300 1025 
L 1300 0 
z
" transform="scale(0.015625)"/>
      <path id="Arial-BoldMT-61" d="M 1116 2306 
L 319 2450 
Q 453 2931 781 3162 
Q 1109 3394 1756 3394 
Q 2344 3394 2631 3255 
Q 2919 3116 3036 2902 
Q 3153 2688 3153 2116 
L 3144 1091 
Q 3144 653 3186 445 
Q 3228 238 3344 0 
L 2475 0 
Q 2441 88 2391 259 
Q 2369 338 2359 363 
Q 2134 144 1878 34 
Q 1622 -75 1331 -75 
Q 819 -75 523 203 
Q 228 481 228 906 
Q 228 1188 362 1408 
Q 497 1628 739 1745 
Q 981 1863 1438 1950 
Q 2053 2066 2291 2166 
L 2291 2253 
Q 2291 2506 2166 2614 
Q 2041 2722 1694 2722 
Q 1459 2722 1328 2630 
Q 1197 2538 1116 2306 
z
M 2291 1594 
Q 2122 1538 1756 1459 
Q 1391 1381 1278 1306 
Q 1106 1184 1106 997 
Q 1106 813 1243 678 
Q 1381 544 1594 544 
Q 1831 544 2047 700 
Q 2206 819 2256 991 
Q 2291 1103 2291 1419 
L 2291 1594 
z
" transform="scale(0.015625)"/>
      <path id="Arial-BoldMT-69" d="M 459 3769 
L 459 4581 
L 1338 4581 
L 1338 3769 
L 459 3769 
z
M 459 0 
L 459 3319 
L 1338 3319 
L 1338 0 
L 459 0 
z
" transform="scale(0.015625)"/>
      <path id="Arial-BoldMT-6f" d="M 256 1706 
Q 256 2144 472 2553 
Q 688 2963 1083 3178 
Q 1478 3394 1966 3394 
Q 2719 3394 3200 2905 
Q 3681 2416 3681 1669 
Q 3681 916 3195 420 
Q 2709 -75 1972 -75 
Q 1516 -75 1102 131 
Q 688 338 472 736 
Q 256 1134 256 1706 
z
M 1156 1659 
Q 1156 1166 1390 903 
Q 1625 641 1969 641 
Q 2313 641 2545 903 
Q 2778 1166 2778 1666 
Q 2778 2153 2545 2415 
Q 2313 2678 1969 2678 
Q 1625 2678 1390 2415 
Q 1156 2153 1156 1659 
z
" transform="scale(0.015625)"/>
      <path id="Arial-BoldMT-20" transform="scale(0.015625)"/>
      <path id="Arial-BoldMT-77" d="M 1078 0 
L 28 3319 
L 881 3319 
L 1503 1144 
L 2075 3319 
L 2922 3319 
L 3475 1144 
L 4109 3319 
L 4975 3319 
L 3909 0 
L 3066 0 
L 2494 2134 
L 1931 0 
L 1078 0 
z
" transform="scale(0.015625)"/>
      <path id="Arial-BoldMT-6b" d="M 428 0 
L 428 4581 
L 1306 4581 
L 1306 2150 
L 2334 3319 
L 3416 3319 
L 2281 2106 
L 3497 0 
L 2550 0 
L 1716 1491 
L 1306 1063 
L 1306 0 
L 428 0 
z
" transform="scale(0.015625)"/>
      <path id="Arial-BoldMT-28" d="M 1916 -1347 
L 1313 -1347 
Q 834 -625 584 153 
Q 334 931 334 1659 
Q 334 2563 644 3369 
Q 913 4069 1325 4659 
L 1925 4659 
Q 1497 3713 1336 3048 
Q 1175 2384 1175 1641 
Q 1175 1128 1270 590 
Q 1366 53 1531 -431 
Q 1641 -750 1916 -1347 
z
" transform="scale(0.015625)"/>
      <path id="Arial-BoldMT-52" d="M 469 0 
L 469 4581 
L 2416 4581 
Q 3150 4581 3483 4457 
Q 3816 4334 4016 4018 
Q 4216 3703 4216 3297 
Q 4216 2781 3912 2445 
Q 3609 2109 3006 2022 
Q 3306 1847 3501 1637 
Q 3697 1428 4028 894 
L 4588 0 
L 3481 0 
L 2813 997 
Q 2456 1531 2325 1670 
Q 2194 1809 2047 1861 
Q 1900 1913 1581 1913 
L 1394 1913 
L 1394 0 
L 469 0 
z
M 1394 2644 
L 2078 2644 
Q 2744 2644 2909 2700 
Q 3075 2756 3169 2893 
Q 3263 3031 3263 3238 
Q 3263 3469 3139 3611 
Q 3016 3753 2791 3791 
Q 2678 3806 2116 3806 
L 1394 3806 
L 1394 2644 
z
" transform="scale(0.015625)"/>
      <path id="Arial-BoldMT-6c" d="M 459 0 
L 459 4581 
L 1338 4581 
L 1338 0 
L 459 0 
z
" transform="scale(0.015625)"/>
      <path id="Arial-BoldMT-4d" d="M 453 0 
L 453 4581 
L 1838 4581 
L 2669 1456 
L 3491 4581 
L 4878 4581 
L 4878 0 
L 4019 0 
L 4019 3606 
L 3109 0 
L 2219 0 
L 1313 3606 
L 1313 0 
L 453 0 
z
" transform="scale(0.015625)"/>
      <path id="Arial-BoldMT-29" d="M 216 -1347 
Q 475 -791 581 -494 
Q 688 -197 778 190 
Q 869 578 912 926 
Q 956 1275 956 1641 
Q 956 2384 797 3048 
Q 638 3713 209 4659 
L 806 4659 
Q 1278 3988 1539 3234 
Q 1800 2481 1800 1706 
Q 1800 1053 1594 306 
Q 1359 -531 822 -1347 
L 216 -1347 
z
" transform="scale(0.015625)"/>
     </defs>
     <use xlink:href="#Arial-BoldMT-74"/>
     <use xlink:href="#Arial-BoldMT-78" transform="translate(33.300781 0)"/>
     <use xlink:href="#Arial-BoldMT-74" transform="translate(88.916016 0)"/>
     <use xlink:href="#Arial-BoldMT-2d" transform="translate(122.216797 0)"/>
     <use xlink:href="#Arial-BoldMT-67" transform="translate(155.517578 0)"/>
     <use xlink:href="#Arial-BoldMT-65" transform="translate(216.601562 0)"/>
     <use xlink:href="#Arial-BoldMT-6e" transform="translate(272.216797 0)"/>
     <use xlink:href="#Arial-BoldMT-65" transform="translate(333.300781 0)"/>
     <use xlink:href="#Arial-BoldMT-72" transform="translate(388.916016 0)"/>
     <use xlink:href="#Arial-BoldMT-61" transform="translate(427.832031 0)"/>
     <use xlink:href="#Arial-BoldMT-74" transform="translate(483.447266 0)"/>
     <use xlink:href="#Arial-BoldMT-69" transform="translate(516.748047 0)"/>
     <use xlink:href="#Arial-BoldMT-6f" transform="translate(544.53125 0)"/>
     <use xlink:href="#Arial-BoldMT-6e" transform="translate(605.615234 0)"/>
     <use xlink:href="#Arial-BoldMT-20" transform="translate(666.699219 0)"/>
     <use xlink:href="#Arial-BoldMT-2d" transform="translate(694.482422 0)"/>
     <use xlink:href="#Arial-BoldMT-20" transform="translate(727.783203 0)"/>
     <use xlink:href="#Arial-BoldMT-77" transform="translate(755.566406 0)"/>
     <use xlink:href="#Arial-BoldMT-69" transform="translate(833.349609 0)"/>
     <use xlink:href="#Arial-BoldMT-6b" transform="translate(861.132812 0)"/>
     <use xlink:href="#Arial-BoldMT-69" transform="translate(916.748047 0)"/>
     <use xlink:href="#Arial-BoldMT-74" transform="translate(944.53125 0)"/>
     <use xlink:href="#Arial-BoldMT-65" transform="translate(977.832031 0)"/>
     <use xlink:href="#Arial-BoldMT-78" transform="translate(1033.447266 0)"/>
     <use xlink:href="#Arial-BoldMT-74" transform="translate(1089.0625 0)"/>
     <use xlink:href="#Arial-BoldMT-20" transform="translate(1122.363281 0)"/>
     <use xlink:href="#Arial-BoldMT-28" transform="translate(1150.146484 0)"/>
     <use xlink:href="#Arial-BoldMT-52" transform="translate(1183.447266 0)"/>
     <use xlink:href="#Arial-BoldMT-6f" transform="translate(1255.664062 0)"/>
     <use xlink:href="#Arial-BoldMT-6c" transform="translate(1316.748047 0)"/>
     <use xlink:href="#Arial-BoldMT-6c" transform="translate(1344.53125 0)"/>
     <use xlink:href="#Arial-BoldMT-69" transform="translate(1372.314453 0)"/>
     <use xlink:href="#Arial-BoldMT-6e" transform="translate(1400.097656 0)"/>
     <use xlink:href="#Arial-BoldMT-67" transform="translate(1461.181641 0)"/>
     <use xlink:href="#Arial-BoldMT-20" transform="translate(1522.265625 0)"/>
     <use xlink:href="#Arial-BoldMT-4d" transform="translate(1550.048828 0)"/>
     <use xlink:href="#Arial-BoldMT-65" transform="translate(1633.349609 0)"/>
     <use xlink:href="#Arial-BoldMT-61" transform="translate(1688.964844 0)"/>
     <use xlink:href="#Arial-BoldMT-6e" transform="translate(1744.580078 0)"/>
     <use xlink:href="#Arial-BoldMT-29" transform="translate(1805.664062 0)"/>
    </g>
   </g>
   <g id="legend_1">
    <g id="patch_7">
     <path d="M 527.929688 850.9572 
L 967.600312 850.9572 
Q 970.000312 850.9572 970.000312 848.5572 
L 970.000312 798.5472 
Q 970.000312 796.1472 967.600312 796.1472 
L 527.929688 796.1472 
Q 525.529688 796.1472 525.529688 798.5472 
L 525.529688 848.5572 
Q 525.529688 850.9572 527.929688 850.9572 
z
" style="fill: #ffffff; opacity: 0.8; stroke: #cccccc; stroke-linejoin: miter"/>
    </g>
    <g id="text_18">
     <!-- Neural Network Model -->
     <g style="fill: #262626" transform="translate(688.412812 809.536575) scale(0.12 -0.12)">
      <defs>
       <path id="ArialMT-4e" d="M 488 0 
L 488 4581 
L 1109 4581 
L 3516 984 
L 3516 4581 
L 4097 4581 
L 4097 0 
L 3475 0 
L 1069 3600 
L 1069 0 
L 488 0 
z
" transform="scale(0.015625)"/>
       <path id="ArialMT-65" d="M 2694 1069 
L 3275 997 
Q 3138 488 2766 206 
Q 2394 -75 1816 -75 
Q 1088 -75 661 373 
Q 234 822 234 1631 
Q 234 2469 665 2931 
Q 1097 3394 1784 3394 
Q 2450 3394 2872 2941 
Q 3294 2488 3294 1666 
Q 3294 1616 3291 1516 
L 816 1516 
Q 847 969 1125 678 
Q 1403 388 1819 388 
Q 2128 388 2347 550 
Q 2566 713 2694 1069 
z
M 847 1978 
L 2700 1978 
Q 2663 2397 2488 2606 
Q 2219 2931 1791 2931 
Q 1403 2931 1139 2672 
Q 875 2413 847 1978 
z
" transform="scale(0.015625)"/>
       <path id="ArialMT-6c" d="M 409 0 
L 409 4581 
L 972 4581 
L 972 0 
L 409 0 
z
" transform="scale(0.015625)"/>
       <path id="ArialMT-20" transform="scale(0.015625)"/>
       <path id="ArialMT-74" d="M 1650 503 
L 1731 6 
Q 1494 -44 1306 -44 
Q 1000 -44 831 53 
Q 663 150 594 308 
Q 525 466 525 972 
L 525 2881 
L 113 2881 
L 113 3319 
L 525 3319 
L 525 4141 
L 1084 4478 
L 1084 3319 
L 1650 3319 
L 1650 2881 
L 1084 2881 
L 1084 941 
Q 1084 700 1114 631 
Q 1144 563 1211 522 
Q 1278 481 1403 481 
Q 1497 481 1650 503 
z
" transform="scale(0.015625)"/>
       <path id="ArialMT-77" d="M 1034 0 
L 19 3319 
L 600 3319 
L 1128 1403 
L 1325 691 
Q 1338 744 1497 1375 
L 2025 3319 
L 2603 3319 
L 3100 1394 
L 3266 759 
L 3456 1400 
L 4025 3319 
L 4572 3319 
L 3534 0 
L 2950 0 
L 2422 1988 
L 2294 2553 
L 1622 0 
L 1034 0 
z
" transform="scale(0.015625)"/>
       <path id="ArialMT-6b" d="M 425 0 
L 425 4581 
L 988 4581 
L 988 1969 
L 2319 3319 
L 3047 3319 
L 1778 2088 
L 3175 0 
L 2481 0 
L 1384 1697 
L 988 1316 
L 988 0 
L 425 0 
z
" transform="scale(0.015625)"/>
       <path id="ArialMT-4d" d="M 475 0 
L 475 4581 
L 1388 4581 
L 2472 1338 
Q 2622 884 2691 659 
Q 2769 909 2934 1394 
L 4031 4581 
L 4847 4581 
L 4847 0 
L 4263 0 
L 4263 3834 
L 2931 0 
L 2384 0 
L 1059 3900 
L 1059 0 
L 475 0 
z
" transform="scale(0.015625)"/>
       <path id="ArialMT-64" d="M 2575 0 
L 2575 419 
Q 2259 -75 1647 -75 
Q 1250 -75 917 144 
Q 584 363 401 755 
Q 219 1147 219 1656 
Q 219 2153 384 2558 
Q 550 2963 881 3178 
Q 1213 3394 1622 3394 
Q 1922 3394 2156 3267 
Q 2391 3141 2538 2938 
L 2538 4581 
L 3097 4581 
L 3097 0 
L 2575 0 
z
M 797 1656 
Q 797 1019 1065 703 
Q 1334 388 1700 388 
Q 2069 388 2326 689 
Q 2584 991 2584 1609 
Q 2584 2291 2321 2609 
Q 2059 2928 1675 2928 
Q 1300 2928 1048 2622 
Q 797 2316 797 1656 
z
" transform="scale(0.015625)"/>
      </defs>
      <use xlink:href="#ArialMT-4e"/>
      <use xlink:href="#ArialMT-65" transform="translate(72.216797 0)"/>
      <use xlink:href="#ArialMT-75" transform="translate(127.832031 0)"/>
      <use xlink:href="#ArialMT-72" transform="translate(183.447266 0)"/>
      <use xlink:href="#ArialMT-61" transform="translate(216.748047 0)"/>
      <use xlink:href="#ArialMT-6c" transform="translate(272.363281 0)"/>
      <use xlink:href="#ArialMT-20" transform="translate(294.580078 0)"/>
      <use xlink:href="#ArialMT-4e" transform="translate(322.363281 0)"/>
      <use xlink:href="#ArialMT-65" transform="translate(394.580078 0)"/>
      <use xlink:href="#ArialMT-74" transform="translate(450.195312 0)"/>
      <use xlink:href="#ArialMT-77" transform="translate(477.978516 0)"/>
      <use xlink:href="#ArialMT-6f" transform="translate(550.195312 0)"/>
      <use xlink:href="#ArialMT-72" transform="translate(605.810547 0)"/>
      <use xlink:href="#ArialMT-6b" transform="translate(639.111328 0)"/>
      <use xlink:href="#ArialMT-20" transform="translate(689.111328 0)"/>
      <use xlink:href="#ArialMT-4d" transform="translate(716.894531 0)"/>
      <use xlink:href="#ArialMT-6f" transform="translate(800.195312 0)"/>
      <use xlink:href="#ArialMT-64" transform="translate(855.810547 0)"/>
      <use xlink:href="#ArialMT-65" transform="translate(911.425781 0)"/>
      <use xlink:href="#ArialMT-6c" transform="translate(967.041016 0)"/>
     </g>
    </g>
    <g id="line2d_19">
     <path d="M 530.329687 822.31095 
L 542.329687 822.31095 
L 554.329687 822.31095 
" style="fill: none; stroke: #1f77b4; stroke-width: 1.5; stroke-linecap: round"/>
     <g>
      <use xlink:href="#m87aeeb2578" x="542.329687" y="822.31095" style="fill: #1f77b4; stroke: #1f77b4"/>
     </g>
    </g>
    <g id="text_19">
     <!-- LSTM - Mean -->
     <g style="fill: #262626" transform="translate(563.929688 826.51095) scale(0.12 -0.12)">
      <defs>
       <path id="ArialMT-4c" d="M 469 0 
L 469 4581 
L 1075 4581 
L 1075 541 
L 3331 541 
L 3331 0 
L 469 0 
z
" transform="scale(0.015625)"/>
       <path id="ArialMT-53" d="M 288 1472 
L 859 1522 
Q 900 1178 1048 958 
Q 1197 738 1509 602 
Q 1822 466 2213 466 
Q 2559 466 2825 569 
Q 3091 672 3220 851 
Q 3350 1031 3350 1244 
Q 3350 1459 3225 1620 
Q 3100 1781 2813 1891 
Q 2628 1963 1997 2114 
Q 1366 2266 1113 2400 
Q 784 2572 623 2826 
Q 463 3081 463 3397 
Q 463 3744 659 4045 
Q 856 4347 1234 4503 
Q 1613 4659 2075 4659 
Q 2584 4659 2973 4495 
Q 3363 4331 3572 4012 
Q 3781 3694 3797 3291 
L 3216 3247 
Q 3169 3681 2898 3903 
Q 2628 4125 2100 4125 
Q 1550 4125 1298 3923 
Q 1047 3722 1047 3438 
Q 1047 3191 1225 3031 
Q 1400 2872 2139 2705 
Q 2878 2538 3153 2413 
Q 3553 2228 3743 1945 
Q 3934 1663 3934 1294 
Q 3934 928 3725 604 
Q 3516 281 3123 101 
Q 2731 -78 2241 -78 
Q 1619 -78 1198 103 
Q 778 284 539 648 
Q 300 1013 288 1472 
z
" transform="scale(0.015625)"/>
       <path id="ArialMT-54" d="M 1659 0 
L 1659 4041 
L 150 4041 
L 150 4581 
L 3781 4581 
L 3781 4041 
L 2266 4041 
L 2266 0 
L 1659 0 
z
" transform="scale(0.015625)"/>
       <path id="ArialMT-2d" d="M 203 1375 
L 203 1941 
L 1931 1941 
L 1931 1375 
L 203 1375 
z
" transform="scale(0.015625)"/>
       <path id="ArialMT-6e" d="M 422 0 
L 422 3319 
L 928 3319 
L 928 2847 
Q 1294 3394 1984 3394 
Q 2284 3394 2536 3286 
Q 2788 3178 2913 3003 
Q 3038 2828 3088 2588 
Q 3119 2431 3119 2041 
L 3119 0 
L 2556 0 
L 2556 2019 
Q 2556 2363 2490 2533 
Q 2425 2703 2258 2804 
Q 2091 2906 1866 2906 
Q 1506 2906 1245 2678 
Q 984 2450 984 1813 
L 984 0 
L 422 0 
z
" transform="scale(0.015625)"/>
      </defs>
      <use xlink:href="#ArialMT-4c"/>
      <use xlink:href="#ArialMT-53" transform="translate(55.615234 0)"/>
      <use xlink:href="#ArialMT-54" transform="translate(122.314453 0)"/>
      <use xlink:href="#ArialMT-4d" transform="translate(183.398438 0)"/>
      <use xlink:href="#ArialMT-20" transform="translate(266.699219 0)"/>
      <use xlink:href="#ArialMT-2d" transform="translate(294.482422 0)"/>
      <use xlink:href="#ArialMT-20" transform="translate(327.783203 0)"/>
      <use xlink:href="#ArialMT-4d" transform="translate(355.566406 0)"/>
      <use xlink:href="#ArialMT-65" transform="translate(438.867188 0)"/>
      <use xlink:href="#ArialMT-61" transform="translate(494.482422 0)"/>
      <use xlink:href="#ArialMT-6e" transform="translate(550.097656 0)"/>
     </g>
    </g>
    <g id="line2d_20">
     <path d="M 530.329687 839.431575 
L 542.329687 839.431575 
L 554.329687 839.431575 
" style="fill: none; stroke-dasharray: 2,3.3; stroke-dashoffset: 0; stroke: #1f77b4; stroke-width: 2"/>
    </g>
    <g id="text_20">
     <!-- LSTM - Rolling Mean -->
     <g style="fill: #262626" transform="translate(563.929688 843.631575) scale(0.12 -0.12)">
      <defs>
       <path id="ArialMT-52" d="M 503 0 
L 503 4581 
L 2534 4581 
Q 3147 4581 3465 4457 
Q 3784 4334 3975 4021 
Q 4166 3709 4166 3331 
Q 4166 2844 3850 2509 
Q 3534 2175 2875 2084 
Q 3116 1969 3241 1856 
Q 3506 1613 3744 1247 
L 4541 0 
L 3778 0 
L 3172 953 
Q 2906 1366 2734 1584 
Q 2563 1803 2427 1890 
Q 2291 1978 2150 2013 
Q 2047 2034 1813 2034 
L 1109 2034 
L 1109 0 
L 503 0 
z
M 1109 2559 
L 2413 2559 
Q 2828 2559 3062 2645 
Q 3297 2731 3419 2920 
Q 3541 3109 3541 3331 
Q 3541 3656 3305 3865 
Q 3069 4075 2559 4075 
L 1109 4075 
L 1109 2559 
z
" transform="scale(0.015625)"/>
       <path id="ArialMT-69" d="M 425 3934 
L 425 4581 
L 988 4581 
L 988 3934 
L 425 3934 
z
M 425 0 
L 425 3319 
L 988 3319 
L 988 0 
L 425 0 
z
" transform="scale(0.015625)"/>
       <path id="ArialMT-67" d="M 319 -275 
L 866 -356 
Q 900 -609 1056 -725 
Q 1266 -881 1628 -881 
Q 2019 -881 2231 -725 
Q 2444 -569 2519 -288 
Q 2563 -116 2559 434 
Q 2191 0 1641 0 
Q 956 0 581 494 
Q 206 988 206 1678 
Q 206 2153 378 2554 
Q 550 2956 876 3175 
Q 1203 3394 1644 3394 
Q 2231 3394 2613 2919 
L 2613 3319 
L 3131 3319 
L 3131 450 
Q 3131 -325 2973 -648 
Q 2816 -972 2473 -1159 
Q 2131 -1347 1631 -1347 
Q 1038 -1347 672 -1080 
Q 306 -813 319 -275 
z
M 784 1719 
Q 784 1066 1043 766 
Q 1303 466 1694 466 
Q 2081 466 2343 764 
Q 2606 1063 2606 1700 
Q 2606 2309 2336 2618 
Q 2066 2928 1684 2928 
Q 1309 2928 1046 2623 
Q 784 2319 784 1719 
z
" transform="scale(0.015625)"/>
      </defs>
      <use xlink:href="#ArialMT-4c"/>
      <use xlink:href="#ArialMT-53" transform="translate(55.615234 0)"/>
      <use xlink:href="#ArialMT-54" transform="translate(122.314453 0)"/>
      <use xlink:href="#ArialMT-4d" transform="translate(183.398438 0)"/>
      <use xlink:href="#ArialMT-20" transform="translate(266.699219 0)"/>
      <use xlink:href="#ArialMT-2d" transform="translate(294.482422 0)"/>
      <use xlink:href="#ArialMT-20" transform="translate(327.783203 0)"/>
      <use xlink:href="#ArialMT-52" transform="translate(355.566406 0)"/>
      <use xlink:href="#ArialMT-6f" transform="translate(427.783203 0)"/>
      <use xlink:href="#ArialMT-6c" transform="translate(483.398438 0)"/>
      <use xlink:href="#ArialMT-6c" transform="translate(505.615234 0)"/>
      <use xlink:href="#ArialMT-69" transform="translate(527.832031 0)"/>
      <use xlink:href="#ArialMT-6e" transform="translate(550.048828 0)"/>
      <use xlink:href="#ArialMT-67" transform="translate(605.664062 0)"/>
      <use xlink:href="#ArialMT-20" transform="translate(661.279297 0)"/>
      <use xlink:href="#ArialMT-4d" transform="translate(689.0625 0)"/>
      <use xlink:href="#ArialMT-65" transform="translate(772.363281 0)"/>
      <use xlink:href="#ArialMT-61" transform="translate(827.978516 0)"/>
      <use xlink:href="#ArialMT-6e" transform="translate(883.59375 0)"/>
     </g>
    </g>
    <g id="line2d_21">
     <path d="M 700.628438 822.31095 
L 712.628438 822.31095 
L 724.628438 822.31095 
" style="fill: none; stroke-dasharray: 5.55,2.4; stroke-dashoffset: 0; stroke: #aec7e8; stroke-width: 1.5"/>
     <g>
      <use xlink:href="#m6b93a2a658" x="712.628438" y="822.31095" style="fill: #aec7e8; stroke: #aec7e8"/>
     </g>
    </g>
    <g id="text_21">
     <!-- RNN - Mean -->
     <g style="fill: #262626" transform="translate(734.228438 826.51095) scale(0.12 -0.12)">
      <use xlink:href="#ArialMT-52"/>
      <use xlink:href="#ArialMT-4e" transform="translate(72.216797 0)"/>
      <use xlink:href="#ArialMT-4e" transform="translate(144.433594 0)"/>
      <use xlink:href="#ArialMT-20" transform="translate(216.650391 0)"/>
      <use xlink:href="#ArialMT-2d" transform="translate(244.433594 0)"/>
      <use xlink:href="#ArialMT-20" transform="translate(277.734375 0)"/>
      <use xlink:href="#ArialMT-4d" transform="translate(305.517578 0)"/>
      <use xlink:href="#ArialMT-65" transform="translate(388.818359 0)"/>
      <use xlink:href="#ArialMT-61" transform="translate(444.433594 0)"/>
      <use xlink:href="#ArialMT-6e" transform="translate(500.048828 0)"/>
     </g>
    </g>
    <g id="line2d_22">
     <path d="M 824.905312 822.31095 
L 836.905312 822.31095 
L 848.905312 822.31095 
" style="fill: none; stroke-dasharray: 2,3.3; stroke-dashoffset: 0; stroke: #aec7e8; stroke-width: 2"/>
    </g>
    <g id="text_22">
     <!-- RNN - Rolling Mean -->
     <g style="fill: #262626" transform="translate(858.505312 826.51095) scale(0.12 -0.12)">
      <use xlink:href="#ArialMT-52"/>
      <use xlink:href="#ArialMT-4e" transform="translate(72.216797 0)"/>
      <use xlink:href="#ArialMT-4e" transform="translate(144.433594 0)"/>
      <use xlink:href="#ArialMT-20" transform="translate(216.650391 0)"/>
      <use xlink:href="#ArialMT-2d" transform="translate(244.433594 0)"/>
      <use xlink:href="#ArialMT-20" transform="translate(277.734375 0)"/>
      <use xlink:href="#ArialMT-52" transform="translate(305.517578 0)"/>
      <use xlink:href="#ArialMT-6f" transform="translate(377.734375 0)"/>
      <use xlink:href="#ArialMT-6c" transform="translate(433.349609 0)"/>
      <use xlink:href="#ArialMT-6c" transform="translate(455.566406 0)"/>
      <use xlink:href="#ArialMT-69" transform="translate(477.783203 0)"/>
      <use xlink:href="#ArialMT-6e" transform="translate(500 0)"/>
      <use xlink:href="#ArialMT-67" transform="translate(555.615234 0)"/>
      <use xlink:href="#ArialMT-20" transform="translate(611.230469 0)"/>
      <use xlink:href="#ArialMT-4d" transform="translate(639.013672 0)"/>
      <use xlink:href="#ArialMT-65" transform="translate(722.314453 0)"/>
      <use xlink:href="#ArialMT-61" transform="translate(777.929688 0)"/>
      <use xlink:href="#ArialMT-6e" transform="translate(833.544922 0)"/>
     </g>
    </g>
   </g>
  </g>
 </g>
 <defs>
  <clipPath id="pe845bd3153">
   <rect x="68.49" y="31.92" width="1358.55" height="659.328"/>
  </clipPath>
 </defs>
</svg>
